<?xml version="1.0" encoding="utf-8"?>
<!-- Generator: Adobe Illustrator 16.0.0, SVG Export Plug-In . SVG Version: 6.00 Build 0)  -->
<!DOCTYPE svg PUBLIC "-//W3C//DTD SVG 1.1//EN" "http://www.w3.org/Graphics/SVG/1.1/DTD/svg11.dtd">
<svg version="1.1" id="图层_1" xmlns="http://www.w3.org/2000/svg" xmlns:xlink="http://www.w3.org/1999/xlink" x="0px" y="0px"
	 width="595.28px" height="841.89px" viewBox="0 0 595.28 841.89" enable-background="new 0 0 595.28 841.89" xml:space="preserve">
<g>
	<path fill="#040000" d="M195.04,370.456c8.94,0,16.213-7.273,16.213-16.213c0-8.939-7.273-16.213-16.213-16.213
		s-16.213,7.273-16.213,16.213C178.827,363.183,186.1,370.456,195.04,370.456z"/>
	<path fill="#040000" d="M493.013,660.326l-0.158-0.561l-0.035-0.582l-0.795-358.387c-0.414-6.879-6.359-12.276-13.535-12.276
		h-67.535v-41.733c0-62.182-51.982-112.771-115.877-112.771c-63.896,0-115.879,50.589-115.879,112.771v41.733h-67.564
		c-7.159,0-13.091,5.395-13.504,12.283L93.73,662.846c-0.208,3.541,1.107,7.045,3.609,9.613c2.553,2.646,6.153,4.154,9.895,4.154
		h372.699c7.461,0,13.529-5.85,13.529-13.039C493.462,662.484,493.312,661.393,493.013,660.326z M206.256,246.788
		c0-47.805,39.845-86.696,88.821-86.696c48.975,0,88.82,38.892,88.82,86.696v41.733H206.256V246.788z M465.229,650.539H121.547
		l2.877-335.942h341.306L465.229,650.539z"/>
	<path fill="#040000" d="M396.351,370.456c8.939,0,16.213-7.273,16.213-16.213c0-8.939-7.273-16.213-16.213-16.213
		s-16.213,7.273-16.213,16.213C380.138,363.183,387.411,370.456,396.351,370.456z"/>
</g>
</svg>
