<?xml version="1.0" encoding="utf-8"?>
<!-- Generator: Adobe Illustrator 16.0.0, SVG Export Plug-In . SVG Version: 6.00 Build 0)  -->
<!DOCTYPE svg PUBLIC "-//W3C//DTD SVG 1.1//EN" "http://www.w3.org/Graphics/SVG/1.1/DTD/svg11.dtd">
<svg version="1.1" id="图层_1" xmlns="http://www.w3.org/2000/svg" xmlns:xlink="http://www.w3.org/1999/xlink" x="0px" y="0px"
	 width="12px" height="17px" viewBox="0 0 12 17" enable-background="new 0 0 12 17" xml:space="preserve">
<path fill="#414041" d="M10.229,1.881C9.099,0.751,7.597,0.129,6,0.129c-1.597,0-3.098,0.622-4.227,1.751
	C0.643,3.01,0.021,4.511,0.021,6.107c0,1.083,0.292,2.143,0.846,3.068c0.004,0.006,0.008,0.01,0.01,0.018
	c0.232,0.488,1.554,3.158,4.802,7.516c0.01,0.012,0.021,0.025,0.032,0.035l0.015,0.016l0.012,0.012l0.014,0.012
	c0.017,0.012,0.029,0.021,0.043,0.029c0.019,0.012,0.037,0.02,0.054,0.027l0.115,0.029L6,16.871c0.013,0,0.02-0.002,0.027-0.002
	l0.024-0.002l0.014-0.002l0.081-0.023c0.017-0.008,0.026-0.012,0.035-0.016c0.012-0.006,0.02-0.012,0.027-0.016
	c0.017-0.012,0.03-0.02,0.042-0.029c0,0,0.014-0.014,0.014-0.014l0.011-0.01l0.015-0.016c0.016-0.014,0.026-0.027,0.036-0.041
	c3.199-4.494,4.643-7.219,4.796-7.514c0.005-0.008,0.01-0.016,0.016-0.021c0.55-0.923,0.84-1.979,0.84-3.059
	C11.979,4.511,11.356,3.01,10.229,1.881z M6,9.297c-1.758,0-3.188-1.431-3.188-3.189c0-1.758,1.43-3.188,3.188-3.188
	s3.189,1.43,3.189,3.188C9.188,7.866,7.758,9.297,6,9.297z"/>
</svg>
